<svg width="83" height="37" viewBox="0 0 83 37" fill="none" xmlns="http://www.w3.org/2000/svg">
<path fill-rule="evenodd" clip-rule="evenodd" d="M43.9792 1.28097C43.9552 -1.15189 44.4461 -3.56191 45.4191 -5.78836C46.3921 -8.0148 47.8248 -10.0065 49.6216 -11.6305C51.3195 -13.3571 53.3442 -14.722 55.5756 -15.644C57.8071 -16.566 60.1995 -17.0263 62.6109 -16.9975C68.7652 -16.9975 73.6664 -14.7606 77.3148 -10.2869C80.8887 -6.03535 82.7754 -0.600586 82.6112 4.97008C82.6112 16.0392 73.0393 26.7158 53.8954 37L51.1591 32.8083C57.6546 27.5476 60.9027 23.2998 60.9034 20.0651C60.9034 19.0559 59.5361 18.0491 56.8016 17.0447C52.6953 15.591 49.9028 14.1941 48.4239 12.854C45.4608 10.3911 43.9792 6.53346 43.9792 1.28097ZM0.206226 1.28097C0.165294 -1.10713 0.597965 -3.4794 1.47884 -5.69659C2.35971 -7.91379 3.67104 -9.93123 5.33583 -11.6305C7.06079 -13.3688 9.11478 -14.7398 11.3757 -15.6618C13.6367 -16.5838 16.0585 -17.038 18.4971 -16.9975C24.6493 -16.9975 29.5502 -14.7606 33.1999 -10.2869C36.8721 -6.08227 38.8259 -0.629986 38.6673 4.97008C38.6673 16.0392 29.0954 26.7158 9.95152 37L6.87334 32.8083C13.6016 27.5475 16.9657 23.2998 16.9657 20.0651C16.9657 19.0559 15.4841 18.049 12.5209 17.0447C8.53001 15.591 5.79409 14.1941 4.3132 12.854C1.57385 10.3911 0.204852 6.53345 0.206226 1.28097Z" fill="#FBFB00"/>
</svg>
