<svg width="60" height="60" viewBox="0 0 60 60" fill="none" xmlns="http://www.w3.org/2000/svg">
<circle cx="30" cy="30" r="30" fill="#F27FFF"/>
<circle cx="30" cy="30" r="28" fill="#160052"/>
<circle cx="30.0772" cy="30.0769" r="23.0769" fill="#FBFB00"/>
<path d="M33.175 19.1334C33.6527 18.8586 34.2627 19.0221 34.539 19.4989L37.3146 24.2897C37.6722 24.907 38.3316 25.2871 39.0451 25.2871H41C41.5523 25.2871 42 25.7348 42 26.2871V26.9492C42 27.3521 41.6734 27.6786 41.2706 27.6786C40.8913 27.6786 40.5753 27.9693 40.5437 28.3473L39.6912 38.5398C39.6662 38.8386 39.5295 39.1171 39.3081 39.3202C39.0868 39.5233 38.7969 39.6361 38.496 39.6363H21.504C21.2031 39.6361 20.9132 39.5233 20.6919 39.3202C20.4705 39.1171 20.3338 38.8386 20.3088 38.5398L19.4551 28.3467C19.4235 27.969 19.1078 27.6786 18.7288 27.6786C18.3263 27.6786 18 27.3523 18 26.9498V26.2871C18 25.7348 18.4477 25.2871 19 25.2871H20.9539C21.6672 25.2871 22.3266 24.9071 22.6843 24.2899L25.461 19.4987C25.7373 19.022 26.3472 18.8586 26.8249 19.1334L27.1698 19.3318C27.6495 19.6078 27.8138 20.221 27.5363 20.6999L24.8784 25.2871H35.1204L32.4635 20.6999C32.1861 20.221 32.3504 19.6079 32.8301 19.3319L33.175 19.1334ZM31.2 31.0702C31.2 30.5179 30.7523 30.0702 30.2 30.0702H29.8C29.2477 30.0702 28.8 30.5179 28.8 31.0702V33.8532C28.8 34.4055 29.2477 34.8532 29.8 34.8532H30.2C30.7523 34.8532 31.2 34.4055 31.2 33.8532V31.0702ZM26.4 31.0702C26.4 30.5179 25.9523 30.0702 25.4 30.0702H25C24.4477 30.0702 24 30.5179 24 31.0702V33.8532C24 34.4055 24.4477 34.8532 25 34.8532H25.4C25.9523 34.8532 26.4 34.4055 26.4 33.8532V31.0702ZM36 31.0702C36 30.5179 35.5523 30.0702 35 30.0702H34.6C34.0477 30.0702 33.6 30.5179 33.6 31.0702V33.8532C33.6 34.4055 34.0477 34.8532 34.6 34.8532H35C35.5523 34.8532 36 34.4055 36 33.8532V31.0702Z" fill="#160052"/>
</svg>
