<svg width="62" height="62" viewBox="0 0 62 62" fill="none" xmlns="http://www.w3.org/2000/svg">
<path d="M60.6613 56.2041L48.8068 44.3628C53.0644 38.9132 55.0808 32.0467 54.4447 25.1634C53.8087 18.28 50.5682 11.8982 45.384 7.31912C40.1998 2.74007 33.4623 0.308686 26.5453 0.520723C19.6283 0.732759 13.0527 3.57225 8.15932 8.46022C3.26595 13.3482 0.423315 19.9165 0.211045 26.8259C-0.00122644 33.7352 2.43285 40.4653 7.01696 45.6438C11.6011 50.8223 17.99 54.0592 24.8809 54.6945C31.7719 55.3298 38.646 53.3157 44.1016 49.0628L55.956 60.9042C56.5596 61.5171 57.3796 61.8694 58.2401 61.8853C58.6667 61.8798 59.0881 61.7904 59.48 61.622C59.872 61.4537 60.2268 61.2097 60.5242 60.9042C60.8441 60.6057 61.1016 60.2469 61.2819 59.8484C61.4621 59.45 61.5614 59.0198 61.5742 58.5827C61.5869 58.1457 61.5128 57.7104 61.3561 57.3021C61.1994 56.8939 60.9633 56.5207 60.6613 56.2041ZM27.4962 48.173C23.4575 48.173 19.5096 46.9767 16.1515 44.7354C12.7935 42.4942 10.1762 39.3085 8.63071 35.5814C7.08518 31.8543 6.6808 27.7531 7.4687 23.7964C8.25661 19.8397 10.2014 16.2053 13.0572 13.3527C15.9129 10.5001 19.5514 8.5574 23.5125 7.77037C27.4735 6.98333 31.5793 7.38727 35.3105 8.93109C39.0417 10.4749 42.2309 13.0893 44.4747 16.4436C46.7184 19.7979 47.916 23.7415 47.916 27.7757C47.91 33.1836 45.7567 38.3682 41.9285 42.1921C38.1004 46.016 32.91 48.167 27.4962 48.173Z" fill="#160052"/>
</svg>
