<svg width="300" height="241" viewBox="0 0 300 241" fill="none" xmlns="http://www.w3.org/2000/svg">
<rect opacity="0.6" x="0.319336" y="0.706543" width="299.135" height="239.308" rx="20" fill="#FBFB00"/>
<path d="M179.661 145.204L167.807 133.363C172.064 127.913 174.081 121.047 173.445 114.163C172.809 107.28 169.568 100.898 164.384 96.3191C159.2 91.7401 152.462 89.3087 145.545 89.5207C138.628 89.7328 132.053 92.5723 127.159 97.4602C122.266 102.348 119.423 108.917 119.211 115.826C118.999 122.735 121.433 129.465 126.017 134.644C130.601 139.822 136.99 143.059 143.881 143.695C150.772 144.33 157.646 142.316 163.102 138.063L174.956 149.904C175.56 150.517 176.38 150.869 177.24 150.885C177.667 150.88 178.088 150.79 178.48 150.622C178.872 150.454 179.227 150.21 179.524 149.904C179.844 149.606 180.102 149.247 180.282 148.848C180.462 148.45 180.561 148.02 180.574 147.583C180.587 147.146 180.513 146.71 180.356 146.302C180.199 145.894 179.963 145.521 179.661 145.204ZM146.496 137.173C142.458 137.173 138.51 135.977 135.152 133.735C131.794 131.494 129.176 128.309 127.631 124.581C126.085 120.854 125.681 116.753 126.469 112.796C127.257 108.84 129.201 105.205 132.057 102.353C134.913 99.5001 138.551 97.5574 142.512 96.7704C146.474 95.9833 150.579 96.3873 154.311 97.9311C158.042 99.4749 161.231 102.089 163.475 105.444C165.718 108.798 166.916 112.742 166.916 116.776C166.91 122.184 164.757 127.368 160.929 131.192C157.1 135.016 151.91 137.167 146.496 137.173Z" fill="#160052"/>
</svg>
