<svg width="16" height="16" viewBox="0 0 16 16" fill="none" xmlns="http://www.w3.org/2000/svg">
<g clip-path="url(#clip0_68_10713)">
<path d="M15.5958 13.6118L12.7388 10.7127C13.4054 9.63578 13.7924 8.36297 13.7924 6.997C13.7924 3.13251 10.7047 0.00012207 6.89604 0.00012207C3.08739 0.00012207 0 3.13251 0 6.997C0 10.8616 3.08724 13.9937 6.89604 13.9937C8.36114 13.9937 9.7182 13.529 10.8349 12.7393L13.6453 15.5911C13.9147 15.8641 14.2678 16.0001 14.6206 16.0001C14.9737 16.0001 15.3264 15.8641 15.5963 15.5911C16.1346 15.0442 16.1346 14.1585 15.5958 13.6118ZM6.89604 11.7268C4.32174 11.7268 2.23465 9.60939 2.23465 6.99729C2.23465 4.3852 4.32174 2.26759 6.89604 2.26759C9.47049 2.26759 11.5574 4.3852 11.5574 6.99729C11.5574 9.60939 9.47049 11.7268 6.89604 11.7268Z" fill="#F27FFF"/>
</g>
<defs>
<clipPath id="clip0_68_10713">
<rect width="16" height="16" fill="white"/>
</clipPath>
</defs>
</svg>
