<svg width="12" height="12" viewBox="0 0 12 12" fill="none" xmlns="http://www.w3.org/2000/svg">
<g clip-path="url(#clip0_68_1367)">
<path d="M11.6734 8.80679L9.99873 7.13216C9.40065 6.53407 8.3839 6.77333 8.14467 7.55081C7.96524 8.08911 7.36716 8.38816 6.82888 8.26852C5.63272 7.96947 4.01789 6.41445 3.71885 5.15848C3.53942 4.62018 3.89827 4.02209 4.43655 3.84269C5.21406 3.60346 5.45329 2.58671 4.85521 1.98863L3.18057 0.313994C2.7021 -0.104665 1.9844 -0.104665 1.56574 0.313994L0.429382 1.45035C-0.706978 2.64652 0.548999 5.81637 3.36 8.62737C6.17099 11.4384 9.34084 12.7542 10.537 11.558L11.6734 10.4216C12.092 9.94315 12.092 9.22545 11.6734 8.80679Z" fill="#FBFB00"/>
</g>
<defs>
<clipPath id="clip0_68_1367">
<rect width="12" height="12" fill="white"/>
</clipPath>
</defs>
</svg>
