<svg width="100" height="23" viewBox="0 0 100 23" fill="none" xmlns="http://www.w3.org/2000/svg">
<path d="M7.96697 11.5977C8.33764 11.1639 9.0082 11.1639 9.37887 11.5977L14.875 18.0298C15.3899 18.6324 14.9617 19.5616 14.169 19.5616H3.17679C2.38413 19.5616 1.95591 18.6324 2.47083 18.0298L7.96697 11.5977Z" fill="#1D634A"/>
<path d="M7.96697 6.44044C8.33764 6.00664 9.0082 6.00664 9.37887 6.44044L14.875 12.8726C15.3899 13.4752 14.9617 14.4044 14.169 14.4044L3.17679 14.4044C2.38413 14.4044 1.95591 13.4752 2.47083 12.8726L7.96697 6.44044Z" fill="#278362"/>
<path d="M7.96697 1.2837C8.33764 0.849899 9.0082 0.849899 9.37887 1.2837L14.875 7.71585C15.3899 8.31847 14.9617 9.24764 14.169 9.24764L3.17679 9.24764C2.38413 9.24764 1.95591 8.31847 2.47083 7.71585L7.96697 1.2837Z" fill="#3EA47F"/>
<path d="M29.9675 5.76847V7.68521H25.7673V9.75584H28.9101V11.6166H25.7673V15.59H23.256V5.76847H29.9675Z" fill="white"/>
<path d="M34.5372 15.7019C33.7344 15.7019 33.0098 15.5387 32.3637 15.2123C31.7273 14.8858 31.223 14.4194 30.851 13.8132C30.4887 13.2069 30.3076 12.498 30.3076 11.6866C30.3076 10.8844 30.4936 10.1802 30.8657 9.57396C31.2377 8.95837 31.7468 8.48734 32.393 8.16089C33.0392 7.83444 33.7637 7.67121 34.5666 7.67121C35.3694 7.67121 36.0939 7.83444 36.7401 8.16089C37.3863 8.48734 37.8954 8.95837 38.2675 9.57396C38.6395 10.1802 38.8256 10.8844 38.8256 11.6866C38.8256 12.4887 38.6346 13.1976 38.2528 13.8132C37.8807 14.4194 37.3667 14.8858 36.7107 15.2123C36.0646 15.5387 35.34 15.7019 34.5372 15.7019ZM34.5372 13.6313C35.0169 13.6313 35.4233 13.4634 35.7562 13.1276C36.0988 12.7918 36.2702 12.3115 36.2702 11.6866C36.2702 11.0617 36.1037 10.5813 35.7708 10.2455C35.4477 9.90974 35.0463 9.74185 34.5666 9.74185C34.077 9.74185 33.6707 9.90974 33.3476 10.2455C33.0245 10.572 32.863 11.0523 32.863 11.6866C32.863 12.3115 33.0196 12.7918 33.3329 13.1276C33.656 13.4634 34.0575 13.6313 34.5372 13.6313Z" fill="white"/>
<path d="M42.6692 9.08429C42.9629 8.65523 43.3301 8.31946 43.7706 8.07695C44.2112 7.82511 44.7008 7.6992 45.2393 7.6992V10.2315H44.549C43.9224 10.2315 43.4524 10.3621 43.1391 10.6233C42.8258 10.8751 42.6692 11.3228 42.6692 11.9664V15.59H40.1579V7.78314H42.6692V9.08429Z" fill="white"/>
<path d="M54.1645 11.5607C54.1645 11.7845 54.1498 12.0177 54.1205 12.2602H48.4369C48.4761 12.7452 48.6376 13.1183 48.9216 13.3795C49.2153 13.6313 49.5727 13.7572 49.9937 13.7572C50.6203 13.7572 51.056 13.5054 51.3007 13.0017H53.9736C53.8365 13.5147 53.5869 13.9764 53.2246 14.3868C52.8721 14.7972 52.4267 15.119 51.8882 15.3522C51.3497 15.5853 50.7475 15.7019 50.0818 15.7019C49.2789 15.7019 48.5642 15.5387 47.9376 15.2123C47.311 14.8858 46.8215 14.4194 46.469 13.8132C46.1165 13.2069 45.9403 12.498 45.9403 11.6866C45.9403 10.8751 46.1116 10.1662 46.4543 9.55997C46.8068 8.9537 47.2963 8.48734 47.9229 8.16089C48.5495 7.83444 49.2691 7.67121 50.0818 7.67121C50.8748 7.67121 51.5798 7.82978 52.1966 8.1469C52.8134 8.46403 53.2931 8.9164 53.6358 9.50401C53.9883 10.0916 54.1645 10.7772 54.1645 11.5607ZM51.5944 10.9311C51.5944 10.5207 51.4476 10.1942 51.1539 9.95171C50.8601 9.70921 50.493 9.58795 50.0524 9.58795C49.6314 9.58795 49.274 9.70454 48.9803 9.93772C48.6964 10.1709 48.5201 10.502 48.4516 10.9311H51.5944Z" fill="white"/>
<path d="M58.8231 15.7019C58.1084 15.7019 57.472 15.5853 56.9139 15.3522C56.3558 15.119 55.9153 14.8019 55.5922 14.4008C55.2691 13.9904 55.0879 13.5334 55.0488 13.0297H57.5307C57.5601 13.3002 57.6923 13.5194 57.9273 13.6873C58.1622 13.8551 58.4511 13.9391 58.7937 13.9391C59.107 13.9391 59.3469 13.8831 59.5134 13.7712C59.6896 13.65 59.7777 13.4961 59.7777 13.3095C59.7777 13.0857 59.6553 12.9224 59.4106 12.8198C59.1658 12.7079 58.7693 12.5866 58.221 12.4561C57.6335 12.3255 57.144 12.1902 56.7524 12.0503C56.3607 11.9011 56.023 11.6726 55.739 11.3648C55.4551 11.0477 55.3131 10.6233 55.3131 10.0916C55.3131 9.64392 55.4404 9.23818 55.695 8.87442C55.9593 8.50134 56.3412 8.20753 56.8405 7.993C57.3496 7.77848 57.9517 7.67121 58.6469 7.67121C59.6749 7.67121 60.4826 7.91372 61.0701 8.39874C61.6673 8.88375 62.01 9.52733 62.0981 10.3295H59.7777C59.7385 10.059 59.6113 9.84445 59.3959 9.68589C59.1903 9.52733 58.9161 9.44805 58.5735 9.44805C58.2797 9.44805 58.0545 9.50401 57.8979 9.61594C57.7412 9.71853 57.6629 9.86311 57.6629 10.0497C57.6629 10.2735 57.7853 10.4414 58.0301 10.5533C58.2846 10.6652 58.6763 10.7772 59.205 10.8891C59.812 11.0383 60.3064 11.1876 60.6883 11.3368C61.0701 11.4767 61.403 11.7099 61.6869 12.0363C61.9806 12.3535 62.1324 12.7825 62.1422 13.3235C62.1422 13.7805 62.0051 14.1909 61.731 14.5547C61.4666 14.9091 61.0799 15.1889 60.5708 15.3941C60.0714 15.5993 59.4889 15.7019 58.8231 15.7019Z" fill="white"/>
<path d="M68.246 13.5613V15.59H66.9683C66.0578 15.59 65.3479 15.3801 64.8388 14.9604C64.3297 14.5314 64.0751 13.8365 64.0751 12.8758V9.76983H63.0765V7.78314H64.0751V5.88039H66.5865V7.78314H68.2313V9.76983H66.5865V12.9038C66.5865 13.137 66.6452 13.3048 66.7627 13.4074C66.8802 13.51 67.076 13.5613 67.3501 13.5613H68.246Z" fill="white"/>
<path d="M82.4053 7.95103L79.894 15.59H78.8659L76.6483 9.18222L74.4307 15.59H73.388L70.8767 7.95103H71.9194L73.9167 14.5967L76.1637 7.95103H77.1917L79.4093 14.6107L81.392 7.95103H82.4053Z" fill="white"/>
<path d="M90.5812 11.3788C90.5812 11.7146 90.5714 11.9711 90.5518 12.1483H83.899C83.9284 12.7266 84.0753 13.2209 84.3396 13.6313C84.604 14.0417 84.9515 14.3542 85.3823 14.5687C85.8131 14.7739 86.2831 14.8765 86.7922 14.8765C87.458 14.8765 88.016 14.7226 88.4664 14.4148C88.9266 14.107 89.2301 13.6919 89.377 13.1696H90.4637C90.2679 13.9158 89.8469 14.5267 89.2007 15.0024C88.5643 15.4688 87.7615 15.7019 86.7922 15.7019C86.0383 15.7019 85.3627 15.5434 84.7655 15.2262C84.1683 14.8998 83.6983 14.4428 83.3556 13.8551C83.0228 13.2582 82.8563 12.5633 82.8563 11.7705C82.8563 10.9777 83.0228 10.2828 83.3556 9.68589C83.6885 9.08895 84.1536 8.63192 84.7508 8.31479C85.3481 7.99767 86.0285 7.8391 86.7922 7.8391C87.5559 7.8391 88.2216 7.99767 88.7895 8.31479C89.3672 8.63192 89.8077 9.06097 90.1113 9.60194C90.4246 10.1336 90.5812 10.7259 90.5812 11.3788ZM89.5385 11.3508C89.5483 10.7818 89.4259 10.2968 89.1713 9.89575C88.9266 9.49468 88.5888 9.19155 88.158 8.98635C87.7272 8.78115 87.2573 8.67855 86.7481 8.67855C85.9845 8.67855 85.3334 8.91173 84.7949 9.37809C84.2564 9.84445 83.9578 10.502 83.899 11.3508H89.5385Z" fill="white"/>
<path d="M92.9949 9.64392C93.2592 9.11227 93.6656 8.67855 94.2138 8.34277C94.7719 8.00699 95.4279 7.8391 96.1818 7.8391C96.9161 7.8391 97.5721 8.00233 98.1497 8.32878C98.7274 8.64591 99.1777 9.10294 99.5008 9.69988C99.8337 10.2875 100 10.973 100 11.7565C100 12.54 99.8337 13.2302 99.5008 13.8272C99.1777 14.4241 98.7225 14.8858 98.135 15.2123C97.5574 15.5387 96.9063 15.7019 96.1818 15.7019C95.4181 15.7019 94.7572 15.5387 94.1992 15.2123C93.6509 14.8765 93.2494 14.4428 92.9949 13.9111V15.59H91.9815V5.23682H92.9949V9.64392ZM98.9575 11.7565C98.9575 11.1223 98.8253 10.5766 98.5609 10.1196C98.3064 9.65324 97.9539 9.29881 97.5035 9.0563C97.0532 8.8138 96.544 8.69254 95.9762 8.69254C95.4279 8.69254 94.9237 8.81846 94.4635 9.07029C94.0131 9.32213 93.6558 9.68123 93.3914 10.1476C93.1271 10.6139 92.9949 11.1549 92.9949 11.7705C92.9949 12.3861 93.1271 12.9271 93.3914 13.3935C93.6558 13.8598 94.0131 14.2189 94.4635 14.4707C94.9237 14.7226 95.4279 14.8485 95.9762 14.8485C96.544 14.8485 97.0532 14.7272 97.5035 14.4847C97.9539 14.2329 98.3064 13.8738 98.5609 13.4074C98.8253 12.9318 98.9575 12.3815 98.9575 11.7565Z" fill="white"/>
</svg>
