<svg width="50" height="50" viewBox="0 0 50 50" fill="none" xmlns="http://www.w3.org/2000/svg">
<path d="M46.7511 26.6654L16.4536 43.3396C14.7927 44.2537 12.7051 43.6483 11.791 41.9873L2.55828 25.2113C1.64416 23.5503 2.2496 21.4628 3.91058 20.5486L34.208 3.87438C35.869 2.96026 37.9565 3.5657 38.8707 5.22668L48.1034 22.0027C49.0175 23.6637 48.4121 25.7512 46.7511 26.6654Z" fill="#FF6E80"/>
<path d="M46.0894 25.4631L15.792 42.1373C14.131 43.0515 12.0435 42.446 11.1293 40.785L1.8966 24.009C0.982475 22.348 1.58792 20.2605 3.2489 19.3464L33.5463 2.67211C35.2073 1.75799 37.2948 2.36343 38.209 4.02441L47.4417 20.8005C48.3558 22.4614 47.7504 24.549 46.0894 25.4631Z" fill="#FF6E80"/>
<path d="M33.5463 2.6723L3.2489 19.3466C1.58792 20.2607 0.982485 22.3483 1.89659 24.0092L11.1293 40.7853C11.1293 40.7853 2.52626 24.3324 36.6094 2.55303C35.6595 2.1262 34.529 2.13149 33.5463 2.6723Z" fill="#FF6E80"/>
<path d="M4.61038 26.0662L5.76976 28.1729C6.06201 28.7039 6.7294 28.8974 7.26042 28.6052L39.222 11.0151C39.7531 10.7228 39.9466 10.0554 39.6544 9.52439L38.495 7.41778C38.2028 6.88676 37.5354 6.69319 37.0043 6.98544L5.04271 24.5756C4.5117 24.8678 4.31813 25.5352 4.61038 26.0662Z" fill="#1D2943"/>
<path d="M4.28903 25.4824L5.44841 27.5891C5.74066 28.1201 6.40805 28.3136 6.93907 28.0214L38.9007 10.4312C39.4317 10.139 39.6253 9.47161 39.333 8.94059L38.1736 6.83398C37.8814 6.30296 37.214 6.10939 36.683 6.40164L4.72136 23.9918C4.19035 24.284 3.99678 24.9514 4.28903 25.4824Z" fill="#4C5C75"/>
<path d="M41.273 47.7539L6.69024 47.7539C4.79433 47.7539 3.25739 46.2169 3.25739 44.321L3.25739 25.1722C3.25738 23.2763 4.79432 21.7393 6.69023 21.7393L41.273 21.7393C43.1689 21.7393 44.7058 23.2763 44.7058 25.1722L44.7058 44.321C44.7058 46.2169 43.1689 47.7539 41.273 47.7539Z" fill="#FBFB00"/>
<path d="M6.69023 46.3815L41.273 46.3816C43.1689 46.3816 44.7058 44.8446 44.7058 42.9487L44.7058 23.7999C44.7058 21.904 43.1689 20.367 41.273 20.367L6.69024 20.367C4.79433 20.367 3.25739 21.9039 3.25739 23.7998L3.25739 42.9487C3.25738 44.8446 4.79432 46.3815 6.69023 46.3815Z" fill="#FBFB00"/>
<path d="M6.69024 20.3669L41.273 20.367C43.1689 20.367 44.7058 21.904 44.7058 23.7998L44.7058 42.9487C44.7058 42.9487 44.31 24.3866 3.94922 21.7393C4.57565 20.9074 5.56858 20.3669 6.69024 20.3669Z" fill="#FBFB00"/>
<path d="M42.016 40.2203V40.7531H42.0089C42.0228 41.4736 41.4218 42.0788 40.6973 42.0788L37.2142 42.0788C36.5026 42.0788 35.8885 41.4847 35.9026 40.7531H35.8955V40.2203H35.9806C36.1862 39.7028 36.7464 39.3483 37.3347 39.3483L40.5767 39.3483C41.1652 39.3483 41.7253 39.7028 41.9309 40.2203H42.016Z" fill="#59D5FF"/>
<path d="M40.6938 41.5501L37.3268 41.5501C36.6485 41.5501 36.0074 41.0895 35.9122 40.4179C35.7962 39.6 36.4288 38.8983 37.2244 38.8982L40.5781 38.8982C41.2974 38.8982 41.9673 39.4202 42.0111 40.1382C42.0598 40.9353 41.4296 41.5501 40.6938 41.5501Z" fill="#59D5FF"/>
<path d="M32.0333 40.2203V40.7531H32.0262C32.04 41.4736 31.4391 42.0788 30.7146 42.0788L27.2315 42.0788C26.5199 42.0788 25.9058 41.4847 25.9199 40.7531H25.9128V40.2203H25.9979C26.2035 39.7028 26.7636 39.3483 27.352 39.3483L30.594 39.3483C31.1824 39.3483 31.7426 39.7028 31.9482 40.2203H32.0333Z" fill="#59D5FF"/>
<path d="M30.711 41.5501L27.3441 41.5501C26.6658 41.5501 26.0247 41.0895 25.9295 40.4179C25.8135 39.6 26.4461 38.8983 27.2416 38.8982L30.5953 38.8982C31.3147 38.8982 31.9846 39.4202 32.0284 40.1382C32.077 40.9353 31.4468 41.5501 30.711 41.5501Z" fill="#59D5FF"/>
<path d="M22.0505 40.2203V40.7531H22.0434C22.0573 41.4736 21.4563 42.0788 20.7318 42.0788H17.2487C16.5371 42.0788 15.923 41.4847 15.9371 40.7531H15.93V40.2203H16.0151C16.2207 39.7028 16.7808 39.3483 17.3692 39.3483H20.6112C21.1996 39.3483 21.7598 39.7028 21.9654 40.2203H22.0505Z" fill="#59D5FF"/>
<path d="M20.7283 41.5501L17.3613 41.5501C16.683 41.5501 16.0419 41.0895 15.9467 40.4179C15.8307 39.6 16.4633 38.8983 17.2589 38.8982L20.6125 38.8982C21.3319 38.8982 22.0018 39.4202 22.0456 40.1382C22.0943 40.9353 21.464 41.5501 20.7283 41.5501Z" fill="#59D5FF"/>
<path d="M12.0678 40.2203V40.7531H12.0607C12.0745 41.4736 11.4735 42.0788 10.749 42.0788L7.26599 42.0788C6.55434 42.0788 5.94028 41.4847 5.95436 40.7531H5.94727V40.2203H6.03234C6.23798 39.7028 6.79811 39.3483 7.38646 39.3483L10.6285 39.3483C11.2169 39.3483 11.777 39.7028 11.9827 40.2203H12.0678Z" fill="#59D5FF"/>
<path d="M10.7455 41.5501L7.3786 41.5501C6.70024 41.5501 6.05918 41.0895 5.96395 40.4179C5.84799 39.6 6.48056 38.8983 7.27612 38.8982L10.6298 38.8982C11.3492 38.8982 12.0191 39.4202 12.0629 40.1382C12.1115 40.9353 11.4813 41.5501 10.7455 41.5501Z" fill="#59D5FF"/>
<path d="M5.95007 26.4159L5.95007 29.6192C5.95007 30.4266 6.60464 31.0812 7.4121 31.0812L13.4101 31.0812C14.2176 31.0812 14.8721 30.4266 14.8721 29.6191L14.8721 26.4159C14.8721 25.6084 14.2176 24.9539 13.4101 24.9539L7.41209 24.9539C6.60464 24.9539 5.95007 25.6084 5.95007 26.4159Z" fill="#FEBC1F"/>
<path d="M5.95007 25.9168L5.95007 29.12C5.95007 29.9275 6.60464 30.582 7.41209 30.582L13.4101 30.582C14.2176 30.582 14.8721 29.9274 14.8721 29.12V25.9167C14.8721 25.1093 14.2176 24.4547 13.4101 24.4547L7.41209 24.4547C6.60464 24.4547 5.95007 25.1093 5.95007 25.9168Z" fill="#FFD475"/>
<path d="M10.2557 27.1728V24.4547H9.56128V27.1728H5.95007V27.8672H7.92577V30.582H8.62021V27.8672H11.747V30.582H12.4414V27.8672H14.8721V27.1728H10.2557Z" fill="#FEBC1F"/>
<path d="M41.3821 29.5709L37.4723 29.5709C37.1465 29.5709 36.8387 29.3497 36.7929 29.0272C36.7372 28.6344 37.041 28.2974 37.4231 28.2974L41.3265 28.2974C41.672 28.2974 41.9937 28.5481 42.0147 28.8929C42.0381 29.2756 41.7354 29.5709 41.3821 29.5709Z" fill="#59D5FF"/>
<path d="M41.3821 26.8448L34.5178 26.8448C34.192 26.8448 33.8842 26.6236 33.8385 26.3011C33.7828 25.9083 34.0865 25.5713 34.4686 25.5713L41.3265 25.5713C41.672 25.5713 41.9937 25.822 42.0147 26.1668C42.0381 26.5496 41.7354 26.8448 41.3821 26.8448Z" fill="#59D5FF"/>
<path d="M40.3387 12.0002C41.973 14.0973 43.3087 16.3764 44.3321 18.8305C42.6954 16.7351 41.3646 14.453 40.3387 12.0002Z" fill="#FF6E80"/>
<path d="M9.88556 18.829C12.2671 17.0067 14.8319 15.482 17.5743 14.2684C15.1943 16.0931 12.6266 17.6128 9.88556 18.829Z" fill="#FF6E80"/>
<path d="M29.5526 44.658C32.5305 44.3058 35.5141 44.3027 38.4918 44.658C35.5141 45.0133 32.5305 45.0104 29.5526 44.658Z" fill="#FBFB00"/>
</svg>
