<svg width="50" height="50" viewBox="0 0 50 50" fill="none" xmlns="http://www.w3.org/2000/svg">
<g clip-path="url(#clip0_68_1517)">
<path d="M48.9838 23.6766H1.01631C0.45498 23.6766 0 23.2217 0 22.6603V20.6278C0 20.0666 0.45498 19.6115 1.01631 19.6115H48.9838C49.545 19.6115 50 20.0665 50 20.6278V22.6603C50 23.2217 49.545 23.6766 48.9838 23.6766Z" fill="#59D5FF"/>
<path d="M48.9838 19.6116H46.3416C46.9028 19.6116 47.3578 20.0666 47.3578 20.6279V22.6605C47.3578 23.2217 46.9028 23.6768 46.3416 23.6768H48.9838C49.5451 23.6768 50.0001 23.2218 50.0001 22.6605V20.6279C50.0001 20.0666 49.5451 19.6116 48.9838 19.6116Z" fill="#59D5FF"/>
<path d="M2.69312 23.6767L5.87095 42.4775C6.1189 43.944 7.39028 45.0181 8.877 45.0181H41.1341C42.6168 45.0181 43.8841 43.9521 44.1382 42.4916L47.4085 23.6766H2.69312V23.6767ZM18.0895 39.1238C18.0895 39.6848 17.6342 40.1401 17.0732 40.1401H15.0407C14.4797 40.1401 14.0244 39.6848 14.0244 39.1238V28.9612C14.0244 28.4003 14.4796 27.945 15.0407 27.945H17.0732C17.6341 27.945 18.0895 28.4003 18.0895 28.9612V39.1238ZM27.0326 39.1238C27.0326 39.6848 26.5773 40.1401 26.0163 40.1401H23.9837C23.4228 40.1401 22.9674 39.6848 22.9674 39.1238V28.9612C22.9674 28.4003 23.4227 27.945 23.9837 27.945H26.0163C26.5772 27.945 27.0326 28.4003 27.0326 28.9612V39.1238ZM35.9756 39.1238C35.9756 39.6848 35.5204 40.1401 34.9594 40.1401H32.9269C32.366 40.1401 31.9106 39.6848 31.9106 39.1238V28.9612C31.9106 28.4003 32.3659 27.945 32.9269 27.945H34.9594C35.5204 27.945 35.9756 28.4003 35.9756 28.9612V39.1238Z" fill="#FBFB00"/>
<path d="M44.7155 23.6767L41.4451 42.4917C41.191 43.9521 39.9238 45.0182 38.441 45.0182H41.1341C42.6168 45.0182 43.8841 43.9522 44.1382 42.4917L47.4085 23.6767H44.7155Z" fill="#FBFB00"/>
<path d="M35.3031 22.531L28.2044 7.90229C27.7143 6.89242 28.1357 5.67641 29.1457 5.18637C30.1555 4.69633 31.3716 5.11772 31.8616 6.12768L38.9603 20.7565C39.4504 21.7663 39.029 22.9824 38.019 23.4724C37.0091 23.9623 35.7931 23.541 35.3031 22.531Z" fill="#FF6E80"/>
<path d="M14.6971 22.531L21.7958 7.90217C22.2858 6.8923 21.8644 5.67629 20.8545 5.18625C19.8446 4.69621 18.6286 5.1176 18.1386 6.12756L11.0398 20.7564C10.5498 21.7662 10.9712 22.9822 11.9811 23.4723C12.991 23.9623 14.2069 23.5409 14.6971 22.531Z" fill="#FF6E80"/>
</g>
<defs>
<clipPath id="clip0_68_1517">
<rect width="50" height="50" fill="white"/>
</clipPath>
</defs>
</svg>
