<svg width="50" height="50" viewBox="0 0 50 50" fill="none" xmlns="http://www.w3.org/2000/svg">
<path d="M43.065 33H30.5209C28.8403 35.7342 26.9964 38.3587 24.9999 40.8582C23.0034 38.3587 21.1595 35.7342 19.4789 33H6.93481L0.999908 49H48.9999L43.065 33Z" fill="#FBFB00"/>
<path d="M24.9999 1C21.5522 1.00011 18.2458 2.34338 15.8079 4.73432C13.37 7.12526 12.0004 10.368 12.0002 13.7494C11.924 25.9133 24.9999 41 24.9999 41C24.9999 41 38.0758 25.9133 37.9996 13.7494C37.9995 10.368 36.6298 7.12526 34.1919 4.73432C31.7541 2.34338 28.4476 1.00011 24.9999 1ZM24.9999 19.1588C23.909 19.1588 22.8426 18.8415 21.9356 18.2471C21.0285 17.6527 20.3216 16.8079 19.9041 15.8195C19.4866 14.831 19.3774 13.7434 19.5902 12.694C19.8031 11.6447 20.3284 10.6808 21.0998 9.9243C21.8711 9.16777 22.8539 8.65257 23.9239 8.44385C24.9938 8.23512 26.1028 8.34225 27.1107 8.75168C28.1185 9.1611 28.9799 9.85445 29.586 10.744C30.1921 11.6336 30.5156 12.6795 30.5156 13.7494C30.5158 14.4598 30.3734 15.1633 30.0963 15.8198C29.8192 16.4762 29.4129 17.0726 28.9007 17.575C28.3885 18.0774 27.7803 18.4758 27.111 18.7476C26.4417 19.0193 25.7243 19.1591 24.9999 19.1588Z" fill="#FF6E80"/>
<path d="M43.9999 36.8666L20.2541 46L10.9999 33H19.252C20.9177 35.8506 22.7453 38.5867 24.7245 41.1925C26.7036 38.5867 28.5313 35.8506 30.197 33H42.6349L43.9999 36.8666Z" fill="#59D5FF"/>
<path d="M10.9999 49L34.552 41L40.9999 49H10.9999Z" fill="#FF6E80"/>
</svg>
