<svg width="48" height="48" viewBox="0 0 48 48" fill="none" xmlns="http://www.w3.org/2000/svg">
<path d="M44.8 22.4V42.4C44.8 45.048 35.488 47.2 24 47.2C12.512 47.2 3.20001 45.048 3.20001 42.4V22.4H44.8Z" fill="#FBFB00"/>
<path d="M3.20001 26.4C3.20001 29.0512 12.5128 31.2 24 31.2C35.4872 31.2 44.8 29.0512 44.8 26.4V33.6C44.8 36.2512 35.4872 38.4 24 38.4C12.5128 38.4 3.20001 36.2512 3.20001 33.6V26.4Z" fill="#59D5FF"/>
<path d="M14.4 12.496C16.376 12.28 18.528 12.128 20.8 12.056L25.6 12.016C27.848 12.048 30 12.16 32 12.336L36.8 12.936C42.136 13.808 45.6 15.216 45.6 16.8V29.6C45.6 30.2365 45.3472 30.847 44.8971 31.297C44.447 31.7471 43.8365 32 43.2 32C42.5635 32 41.9531 31.7471 41.503 31.297C41.0529 30.847 40.8 30.2365 40.8 29.6V28C40.8 27.3635 40.5472 26.753 40.0971 26.3029C39.647 25.8528 39.0365 25.6 38.4 25.6C37.7635 25.6 37.1531 25.8528 36.703 26.3029C36.2529 26.753 36 27.3635 36 28V29.6C36 30.2365 35.7472 30.847 35.2971 31.297C34.847 31.7471 34.2365 32 33.6 32C32.9635 32 32.3531 31.7471 31.903 31.297C31.4529 30.847 31.2 30.2365 31.2 29.6V28C31.2 27.3635 30.9472 26.753 30.4971 26.3029C30.047 25.8528 29.4365 25.6 28.8 25.6C28.1635 25.6 27.5531 25.8528 27.103 26.3029C26.6529 26.753 26.4 27.3635 26.4 28V29.6C26.4 30.2365 26.1472 30.847 25.6971 31.297C25.247 31.7471 24.6365 32 24 32C23.3635 32 22.7531 31.7471 22.303 31.297C21.8529 30.847 21.6 30.2365 21.6 29.6V27.2C21.6 26.5635 21.3472 25.953 20.8971 25.5029C20.447 25.0528 19.8365 24.8 19.2 24.8C18.5635 24.8 17.9531 25.0528 17.503 25.5029C17.0529 25.953 16.8 26.5635 16.8 27.2V32C16.8 32.6365 16.5472 33.247 16.0971 33.697C15.647 34.1471 15.0365 34.4 14.4 34.4C13.7635 34.4 13.1531 34.1471 12.703 33.697C12.2529 33.247 12 32.6365 12 32V25.6C12 24.9635 11.7472 24.353 11.2971 23.9029C10.847 23.4528 10.2365 23.2 9.60002 23.2C8.9635 23.2 8.35306 23.4528 7.90297 23.9029C7.45288 24.353 7.20002 24.9635 7.20002 25.6C7.20002 26.2365 6.94717 26.847 6.49708 27.297C6.04699 27.7471 5.43654 28 4.80002 28C4.1635 28 3.55306 27.7471 3.10297 27.297C2.65288 26.847 2.40002 26.2365 2.40002 25.6V16.8C2.40002 15.384 5.17602 14.104 9.60002 13.224L14.4 12.496Z" fill="#FF6E80"/>
<path d="M25.6 9.6V17.6C25.6 17.6 25 18.4 23.2 18.4C21.4 18.4 20.8 17.6 20.8 17.6V9.6C20.8 9.17565 20.9686 8.76869 21.2686 8.46863C21.5687 8.16857 21.9756 8 22.4 8H24C24.4243 8 24.8313 8.16857 25.1314 8.46863C25.4314 8.76869 25.6 9.17565 25.6 9.6Z" fill="#59D5FF"/>
<path d="M36.8 8.80001V16.8C36.8 16.8 36.2 17.6 34.4 17.6C32.6 17.6 32 16.8 32 16.8V8.80001C32 8.37567 32.1686 7.9687 32.4686 7.66864C32.7687 7.36858 33.1757 7.20001 33.6 7.20001H35.2C35.6243 7.20001 36.0313 7.36858 36.3314 7.66864C36.6314 7.9687 36.8 8.37567 36.8 8.80001Z" fill="#59D5FF"/>
<path d="M14.4 8.80001V16.8C14.4 16.8 13.8 17.6 12 17.6C10.2 17.6 9.59998 16.8 9.59998 16.8V8.80001C9.59998 8.37567 9.76855 7.9687 10.0686 7.66864C10.3687 7.36858 10.7756 7.20001 11.2 7.20001H12.8C13.2243 7.20001 13.6313 7.36858 13.9313 7.66864C14.2314 7.9687 14.4 8.37567 14.4 8.80001Z" fill="#59D5FF"/>
<path d="M36.8 4.95999C36.7821 5.31721 36.6836 5.66576 36.5119 5.97955C36.3402 6.29334 36.0998 6.56425 35.8087 6.772C35.5175 6.97975 35.1832 7.11896 34.8306 7.17922C34.478 7.23948 34.1164 7.21923 33.7728 7.11999C33.427 7.04277 33.1036 6.88721 32.8275 6.66529C32.5513 6.44337 32.3298 6.16102 32.18 5.83999C31.3456 3.90879 33.624 1.75199 34.6872 0.879986C34.7351 0.84121 34.792 0.815069 34.8526 0.803954C34.9133 0.79284 34.9758 0.797107 35.0343 0.816365C35.0929 0.835623 35.1457 0.869258 35.1879 0.914193C35.2301 0.959128 35.2604 1.01393 35.276 1.07359C35.5928 2.37119 36.8 3.66719 36.8 4.95999Z" fill="#FF6E80"/>
<path d="M14.4 4.95999C14.3821 5.31722 14.2836 5.66577 14.1119 5.97956C13.9403 6.29335 13.6999 6.56425 13.4087 6.772C13.1176 6.97975 12.7832 7.11897 12.4306 7.17923C12.0781 7.23949 11.7164 7.21924 11.3728 7.11999C11.0271 7.04278 10.7036 6.88721 10.4275 6.6653C10.1513 6.44338 9.92983 6.16102 9.78001 5.83999C8.94561 3.90879 11.224 1.75199 12.2872 0.879993C12.3351 0.841192 12.3919 0.815029 12.4525 0.803902C12.5131 0.792775 12.5755 0.797042 12.6341 0.816311C12.6926 0.835579 12.7453 0.869232 12.7875 0.914185C12.8296 0.959137 12.8598 1.01395 12.8752 1.07359C13.1928 2.37119 14.4 3.66719 14.4 4.95999Z" fill="#FF6E80"/>
<path d="M25.6 5.75998C25.5821 6.11721 25.4836 6.46576 25.312 6.77955C25.1403 7.09334 24.8999 7.36424 24.6087 7.57199C24.3176 7.77974 23.9832 7.91895 23.6306 7.97922C23.2781 8.03948 22.9165 8.01923 22.5728 7.91998C22.2271 7.84276 21.9037 7.6872 21.6275 7.46528C21.3514 7.24336 21.1298 6.96101 20.98 6.63998C20.1456 4.70878 22.424 2.55198 23.4872 1.67998C23.5351 1.64118 23.5919 1.61502 23.6525 1.60389C23.7131 1.59276 23.7755 1.59703 23.8341 1.6163C23.8926 1.63557 23.9453 1.66922 23.9875 1.71417C24.0296 1.75912 24.0598 1.81394 24.0752 1.87358C24.3928 3.17118 25.6 4.46718 25.6 5.75998Z" fill="#FF6E80"/>
<path d="M24.4 6.87997C24.3912 7.05869 24.3421 7.23311 24.2564 7.39016C24.1706 7.54721 24.0504 7.68284 23.9048 7.78687C23.7593 7.89091 23.592 7.96066 23.4157 7.99092C23.2393 8.02117 23.0584 8.01114 22.8864 7.96157C22.7125 7.92296 22.5499 7.84476 22.4112 7.73307C22.2724 7.62138 22.1613 7.4792 22.0864 7.31757C21.6696 6.35277 22.8064 5.27437 23.3408 4.83757C23.3646 4.81805 23.393 4.80484 23.4232 4.79916C23.4535 4.79349 23.4847 4.79552 23.5139 4.80509C23.5432 4.81466 23.5696 4.83145 23.5906 4.8539C23.6117 4.87636 23.6268 4.90376 23.6344 4.93357C23.7968 5.58557 24.4 6.23357 24.4 6.87997Z" fill="#FF6E80"/>
<path d="M35.6 6.07998C35.5912 6.25871 35.5421 6.43312 35.4563 6.59017C35.3705 6.74723 35.2504 6.88285 35.1048 6.98688C34.9592 7.09092 34.792 7.16067 34.6156 7.19093C34.4392 7.22118 34.2583 7.21115 34.0864 7.16158C33.9125 7.12297 33.7499 7.04478 33.6111 6.93308C33.4724 6.82139 33.3612 6.67921 33.2864 6.51758C32.8696 5.55278 34.0064 4.47438 34.5408 4.03758C34.5646 4.01806 34.5929 4.00485 34.6232 3.99917C34.6534 3.9935 34.6846 3.99554 34.7139 4.0051C34.7432 4.01467 34.7695 4.03146 34.7906 4.05391C34.8116 4.07637 34.8267 4.10377 34.8344 4.13358C34.9968 4.78558 35.6 5.43358 35.6 6.07998Z" fill="#FF6E80"/>
<path d="M13.2 6.07998C13.1912 6.25871 13.1421 6.43312 13.0563 6.59017C12.9706 6.74723 12.8504 6.88285 12.7048 6.98688C12.5592 7.09092 12.392 7.16067 12.2156 7.19093C12.0393 7.22118 11.8584 7.21115 11.6864 7.16158C11.5125 7.12297 11.3499 7.04478 11.2111 6.93308C11.0724 6.82139 10.9613 6.67921 10.8864 6.51758C10.4696 5.55278 11.6064 4.47438 12.1408 4.03758C12.1646 4.01806 12.193 4.00485 12.2232 3.99917C12.2535 3.9935 12.2847 3.99554 12.3139 4.0051C12.3432 4.01467 12.3696 4.03146 12.3906 4.05391C12.4117 4.07637 12.4267 4.10377 12.4344 4.13358C12.5968 4.78558 13.2 5.43358 13.2 6.07998Z" fill="#FF6E80"/>
</svg>
