<svg width="32" height="32" viewBox="0 0 32 32" fill="none" xmlns="http://www.w3.org/2000/svg">
<path d="M28.7498 30.2932L27.7895 13.6462C27.7685 13.2829 27.6055 12.9432 27.337 12.6976C25.6472 11.1525 24.5335 8.51444 24.5335 5.51919V0.845062C24.5335 0.378312 24.1552 0 23.6885 0H19.7583C19.4815 0 19.2571 0.224375 19.2571 0.501188V3.44963C19.2571 5.23569 17.8417 6.72988 16.0559 6.75969C14.2316 6.79012 12.7432 5.3205 12.7432 3.50319V0.501188C12.7432 0.224375 12.5189 0 12.242 0H8.31186C7.84517 0 7.4668 0.378312 7.4668 0.845062V5.51912C7.4668 8.51437 6.35323 11.1524 4.66336 12.6976C4.3948 12.9431 4.23192 13.2829 4.21092 13.6462L3.25036 30.2932C3.19686 31.2195 3.93367 32 4.86155 32H27.1386C28.0665 32 28.8032 31.2195 28.7498 30.2932Z" fill="#FBFB00"/>
<path d="M8.31173 0C7.84504 0 7.46667 0.378312 7.46667 0.845062V5.51912C7.46667 8.51437 6.3531 11.1524 4.66323 12.6976C4.39467 12.9431 4.23179 13.2829 4.21079 13.6462L4.1441 14.8007C5.12504 14.2742 6.01717 13.4814 6.76967 12.4487C8.13167 10.5802 8.88167 8.11919 8.88167 5.51912V0H8.31173Z" fill="#F9C81A"/>
<path d="M23.6885 0C24.1552 0 24.5336 0.378312 24.5336 0.845062V5.51912C24.5336 8.51437 25.6472 11.1524 27.3371 12.6976C27.6057 12.9431 27.7685 13.2829 27.7895 13.6462L27.8561 14.8006C26.8752 14.2741 25.983 13.4813 25.2305 12.4487C23.8685 10.5802 23.1185 8.11913 23.1185 5.51906V0H23.6885Z" fill="#F9C81A"/>
<path d="M19.7583 0C19.4815 0 19.2571 0.224375 19.2571 0.501188V3.44963C19.2571 5.23569 17.8417 6.72988 16.0559 6.75969C14.2316 6.79012 12.7433 5.3205 12.7433 3.50319V0.501188C12.7433 0.224375 12.5189 0 12.2421 0H11.328V3.50325C11.328 6.07956 13.424 8.17556 16.0003 8.17556C18.5766 8.17556 20.6725 6.07956 20.6725 3.50325V0H19.7583Z" fill="#F9C81A"/>
<path d="M28.205 20.853H3.79477L3.53033 25.4382H28.4695L28.205 20.853Z" fill="#FF6E80"/>
<path d="M28.7496 30.293H3.25018C3.19668 31.2193 3.93349 31.9998 4.86136 31.9998H27.1384C28.0663 31.9998 28.8031 31.2193 28.7496 30.293Z" fill="#F9C81A"/>
</svg>
