<svg width="33" height="33" viewBox="0 0 33 33" fill="none" xmlns="http://www.w3.org/2000/svg">
<g clip-path="url(#clip0_70_16582)">
<path d="M29.9682 11.2305C29.9682 11.2305 21.6754 9.73046 21.4807 17.103H29.9682V11.2305Z" fill="#FF6E80"/>
<path d="M0.986084 15.8657H30.511V23.5494H0.986084V15.8657Z" fill="#59D5FF"/>
<path d="M6.22015 8.51416H8.49095V22.432H6.22015V8.51416Z" fill="#F9C81A"/>
<path d="M11.9623 8.51416H14.2331V22.432H11.9623V8.51416Z" fill="#F9C81A"/>
<path d="M17.7042 8.51416H19.975V22.432H17.7042V8.51416Z" fill="#F9C81A"/>
<path d="M23.4464 8.51416H25.7172V22.432H23.4464V8.51416Z" fill="#F9C81A"/>
<path d="M6.22015 8.51416H8.49095V12.6431H6.22015V8.51416Z" fill="#F9C81A"/>
<path d="M11.9623 8.51416H14.2331V12.6431H11.9623V8.51416Z" fill="#F9C81A"/>
<path d="M17.7043 8.51416H19.9751V12.6431H17.7043V8.51416Z" fill="#F9C81A"/>
<path d="M23.4464 8.51416H25.7172V12.6431H23.4464V8.51416Z" fill="#F9C81A"/>
<path d="M0.986084 20.3882H30.511V24.4755H0.986084V20.3882Z" fill="#F9C81A"/>
<path d="M0.986084 6.89111H30.4318V9.4075H0.986084V6.89111Z" fill="#F9C81A"/>
<path d="M1.50563 28.7829C0.639433 28.7829 -0.0626221 28.0809 -0.0626221 27.2147V5.85682C-0.0626221 4.99063 0.639433 4.28857 1.50563 4.28857C2.37182 4.28857 3.07388 4.99063 3.07388 5.85682V27.2147C3.07388 28.0809 2.37182 28.7829 1.50563 28.7829Z" fill="#FBFB00"/>
<path d="M30.4318 28.7829C29.5656 28.7829 28.8635 28.0809 28.8635 27.2147V5.85682C28.8635 4.99063 29.5656 4.28857 30.4318 4.28857C31.298 4.28857 32 4.99063 32 5.85682V27.2147C32 28.0809 31.298 28.7829 30.4318 28.7829Z" fill="#FBFB00"/>
</g>
<defs>
<clipPath id="clip0_70_16582">
<rect width="32.0626" height="32" fill="white" transform="translate(0 0.5)"/>
</clipPath>
</defs>
</svg>
