<svg width="32" height="32" viewBox="0 0 32 32" fill="none" xmlns="http://www.w3.org/2000/svg">
<path d="M7.77026 24.5742C6.33838 24.5742 5.17773 25.7349 5.17773 27.1667C5.17773 28.5986 6.33862 29.7595 7.77026 29.7595H27.7026V24.5742H7.77026Z" fill="white"/>
<path d="M7.17871 27.1667C7.17871 25.7349 8.3396 24.5742 9.77148 24.5742H7.77026C6.33838 24.5742 5.17773 25.7349 5.17773 27.1667C5.17773 28.5986 6.33862 29.7595 7.77026 29.7595H9.77148C8.33936 29.7595 7.17871 28.5986 7.17871 27.1667Z" fill="#D9D7D8"/>
<path d="M7.77051 29.7595C6.33862 29.7595 5.17798 28.5986 5.17798 27.167C5.17798 25.7349 6.33887 24.5742 7.77051 24.5742H27.9175C28.5361 24.5742 29.0376 24.0725 29.0376 23.4539V1.12036C29.0376 0.501465 28.5361 0 27.9175 0H7.43115C4.94922 0 2.9375 2.01196 2.9375 4.49365V27.5063C2.9375 29.988 4.94946 32 7.43115 32H27.9175C28.5361 32 29.0376 31.4985 29.0376 30.8796C29.0376 30.261 28.5361 29.7595 27.9175 29.7595H7.77051Z" fill="#FBFB00"/>
<path d="M27.9175 29.7595H7.77051C6.33862 29.7595 5.17798 28.5986 5.17798 27.167C5.17798 25.7349 6.33887 24.5742 7.77051 24.5742H9.07935V0H7.43115C4.94922 0 2.9375 2.01196 2.9375 4.49365V27.5063C2.9375 29.988 4.94946 32 7.43115 32H27.9175C28.5361 32 29.0376 31.4985 29.0376 30.8796C29.0376 30.261 28.5361 29.7595 27.9175 29.7595Z" fill="#FF6E80"/>
<rect x="13" y="7" width="12" height="2" rx="1" fill="#F9C81A"/>
<rect x="13" y="11" width="12" height="2" rx="1" fill="#F9C81A"/>
<rect x="13" y="15" width="12" height="2" rx="1" fill="#F9C81A"/>
</svg>
