<svg width="32" height="32" viewBox="0 0 32 32" fill="none" xmlns="http://www.w3.org/2000/svg">
<g clip-path="url(#clip0_70_16542)">
<path d="M26.4271 18.1918C25.3045 16.5377 24.2074 14.8138 23.6125 12.908C23.2715 11.8154 23.0955 10.663 23.1745 9.42971C23.2422 8.37271 22.3045 7.52309 21.2563 7.67452C20.6071 7.76834 19.9965 7.79071 19.3784 7.6909C18.348 7.52459 17.2965 7.0189 16.0093 5.93884C15.4517 5.47096 15.0299 4.93121 14.7159 4.35059C11.3844 4.35059 12.2543 9.95165 12.6132 11.1024C13.4259 13.7086 14.8369 16.9523 16.113 20.6285L23.7361 28.2515L28.9059 29.6607C29.6767 28.4408 30.0185 27.2957 30.0552 26.1964C30.1486 23.391 28.2542 20.8839 26.4271 18.1918Z" fill="#FBFB00"/>
<path d="M14.7158 4.35059C11.3843 4.35059 12.2542 9.95165 12.6131 11.1024C12.6882 11.3431 12.7684 11.5892 12.853 11.8406C13.6372 9.51252 14.8991 7.52215 16.5956 6.40234C16.4052 6.26071 16.2104 6.10759 16.0093 5.93884C15.4517 5.47096 15.0299 4.93121 14.7158 4.35059Z" fill="#FBFB00"/>
<path d="M17.2054 15.8296C16.6852 14.1522 15.5027 12.6091 14.6958 11.4742C14.3182 10.9429 14.0035 10.3261 13.7797 9.67236C11.582 10.3143 10.7585 13.1712 11.9538 16.4693L16.113 20.6284C17.6007 19.059 17.6882 17.3864 17.2054 15.8296Z" fill="#F9C81A"/>
<path d="M13.7796 9.67222C13.5895 9.11691 13.4648 8.5351 13.4253 7.95535C13.3345 6.62116 13.6907 5.3001 14.7158 4.35041C14.5162 3.98141 14.3598 3.5961 14.2408 3.20179C14.0448 2.55266 13.9487 1.87991 13.9215 1.21841C13.8825 0.269476 12.8606 -0.297587 12.0301 0.162976C10.7811 0.855538 9.5994 1.86654 8.62621 2.85916C7.64446 3.86054 6.87502 4.84316 6.46334 5.46116L5.30115 9.81654L11.9538 16.4692C12.1148 14.0442 12.7364 11.6252 13.7796 9.67222Z" fill="#F9C81A"/>
<path d="M27.7574 26.0483C26.7888 25.537 25.5597 25.2329 24.2949 25.2918C23.9566 25.3075 23.624 25.1983 23.3558 24.9915C22.2009 24.1008 20.3255 22.4672 18.2094 20.4072C16.3077 18.5559 14.212 16.3599 12.2698 14.0493C10.0085 15.1166 10.267 19.3357 13.1651 23.9166C14.0146 24.7251 14.8771 25.5201 15.7409 26.2842C17.246 27.6155 18.7538 28.8545 20.1978 29.9145C22.2908 31.4509 24.0785 32.0326 25.5344 31.9988C27.5039 31.9531 28.8663 30.7811 29.5566 29.3228C30.1263 28.1192 29.2517 26.8371 27.7574 26.0483Z" fill="#FF6E80"/>
<path d="M13.165 23.9162C11.858 21.2158 11.5985 17.4661 12.2697 14.0489C11.651 13.3129 11.0475 12.5654 10.4712 11.8134C8.8311 9.67319 7.4086 7.49863 6.46335 5.46094C5.45535 5.54187 4.12797 6.21969 3.17241 7.26912C2.11728 8.42794 1.51553 10.0399 2.29785 11.8017C3.20178 13.1579 4.91303 15.2679 7.06197 17.6488C8.8616 19.6426 10.9687 21.8259 13.165 23.9162Z" fill="#FF6E80"/>
<path d="M20.8586 13.0302C20.8586 12.3582 21.4034 11.8135 22.0754 11.8135H23.7111C24.3831 11.8135 24.9278 12.3582 24.9278 13.0302C24.9278 13.7022 24.3831 14.2469 23.7111 14.2469H22.0754C21.4035 14.2469 20.8587 13.7022 20.8586 13.0302Z" fill="white"/>
<path d="M23.4998 17.6488C23.4998 16.9768 24.0445 16.4321 24.7165 16.4321H26.3523C27.0243 16.4322 27.5691 16.9769 27.5691 17.6488C27.5691 18.3208 27.0243 18.8655 26.3523 18.8656H24.7165C24.0445 18.8655 23.4998 18.3208 23.4998 17.6488Z" fill="white"/>
</g>
<defs>
<clipPath id="clip0_70_16542">
<rect width="32" height="32" fill="white"/>
</clipPath>
</defs>
</svg>
