<svg width="32" height="32" viewBox="0 0 32 32" fill="none" xmlns="http://www.w3.org/2000/svg">
<g clip-path="url(#clip0_70_16560)">
<path d="M26.1425 16.0046L25.0296 17.1175C21.5318 20.6154 15.8606 20.6154 12.3628 17.1175C10.8799 15.6346 10.8799 13.2303 12.3628 11.7474L20.7725 3.33775C22.2553 1.85487 24.6597 1.85487 26.1425 3.33775C29.6404 6.8356 29.6404 12.5067 26.1425 16.0046Z" fill="#59D5FF"/>
<path d="M9.59885 16.4177C10.364 17.1829 11.6045 17.1829 12.3697 16.4177L25.4427 3.34474C26.2079 2.57957 26.2079 1.33904 25.4427 0.573875C24.6775 -0.191292 23.437 -0.191292 22.6718 0.573875L9.59885 13.6469C8.83375 14.412 8.83375 15.6526 9.59885 16.4177Z" fill="#FF6E80"/>
<path d="M19.8048 26.1577C25.1151 26.1577 29.4199 21.8529 29.4199 16.5427V16.0656C29.4199 13.8143 27.5948 11.9893 25.3436 11.9893H13.5723L10.1186 15.666L13.5723 24.9028L19.8048 26.1577Z" fill="#FBFB00"/>
<path d="M13.3883 14.2745C13.3883 13.4964 13.4519 12.7333 13.5723 11.9893H6.65644C4.40517 11.9893 2.58014 13.8143 2.58014 16.0656V16.5427C2.58014 21.8529 6.88494 26.1577 12.1952 26.1577H19.8048C19.8094 26.1577 19.814 26.1575 19.8187 26.1575C15.9467 23.6228 13.3883 19.2478 13.3883 14.2745Z" fill="#FBFB00"/>
<path d="M12.6956 30.8473C14.2293 29.3136 14.2293 26.827 12.6956 25.2933C11.1619 23.7596 8.67528 23.7596 7.14158 25.2933C5.60788 26.827 5.60788 29.3136 7.14158 30.8473C8.67528 32.381 11.1619 32.381 12.6956 30.8473Z" fill="#5C41A4"/>
<path d="M25.9232 28.9215C26.4005 26.8043 25.071 24.701 22.9537 24.2238C20.8365 23.7465 18.7332 25.076 18.256 27.1932C17.7787 29.3105 19.1082 31.4137 21.2255 31.891C23.3427 32.3682 25.446 31.0388 25.9232 28.9215Z" fill="#5C41A4"/>
<path d="M9.92271 29.6009C10.767 29.6009 11.4514 28.9165 11.4514 28.0722C11.4514 27.2279 10.767 26.5435 9.92271 26.5435C9.07841 26.5435 8.39398 27.2279 8.39398 28.0722C8.39398 28.9165 9.07841 29.6009 9.92271 29.6009Z" fill="white"/>
<path d="M23.5797 28.3133C23.7148 27.48 23.1488 26.695 22.3155 26.5599C21.4822 26.4248 20.6971 26.9908 20.562 27.8242C20.427 28.6575 20.993 29.4425 21.8263 29.5776C22.6596 29.7127 23.4447 29.1467 23.5797 28.3133Z" fill="white"/>
<path d="M13.5469 16.4002H27.7441C29.3407 16.4002 30.6351 15.1058 30.6351 13.5092C30.6351 11.9125 29.3407 10.6182 27.7441 10.6182H13.8646L10.7978 13.0034L13.5469 16.4002Z" fill="#F9C81A"/>
<path d="M13.3883 14.2743C13.3883 13.0101 13.5545 11.7848 13.8646 10.6182H4.25594C2.65929 10.6182 1.36493 11.9125 1.36493 13.5092C1.36493 15.1058 2.65929 16.4002 4.25594 16.4002H13.5469C13.4427 15.7067 13.3883 14.9969 13.3883 14.2743Z" fill="#F9C81A"/>
</g>
<defs>
<clipPath id="clip0_70_16560">
<rect width="32" height="32" fill="white"/>
</clipPath>
</defs>
</svg>
