<svg width="32" height="32" viewBox="0 0 32 32" fill="none" xmlns="http://www.w3.org/2000/svg">
<g clip-path="url(#clip0_70_16535)">
<path d="M20.1539 17.4497C18.9471 16.2429 18.9471 14.2861 20.1539 13.0794L21.2808 11.9524C25.5711 7.66212 22.7442 0.268581 16.6822 0.0144309C16.5936 0.0107688 16.5047 0.00783912 16.4158 0.00539772C7.16876 -0.230198 -0.287786 7.27711 0.00860107 16.5225C0.292292 25.3701 7.75958 32.4038 16.7693 31.9819C24.9576 31.5986 31.5635 25.0195 31.9791 16.8328C31.982 16.7769 31.9844 16.7209 31.9866 16.665C32.0872 14.1885 29.1002 12.874 27.3475 14.6267L24.5242 17.4497C23.3174 18.6565 21.3606 18.6565 20.1539 17.4497Z" fill="#FBFB00"/>
<path d="M1.94024 16.5225C1.65899 7.75001 8.35821 0.543239 16.9437 0.0303C16.8572 0.0237082 16.7701 0.018093 16.6822 0.0144309C16.5936 0.0107688 16.5047 0.00783912 16.4158 0.00539772C7.16876 -0.230198 -0.287786 7.27711 0.00860107 16.5225C0.292292 25.3701 7.75958 32.4038 16.7691 31.9819C16.8343 31.979 16.8992 31.9743 16.9642 31.9707C8.75054 31.4804 2.20562 24.7947 1.94024 16.5225Z" fill="#F9C81A"/>
<path d="M18.606 6.23071C18.606 8.06737 17.1172 9.55614 15.2805 9.55614C13.4441 9.55614 11.9551 8.06737 11.9551 6.23071C11.9551 4.39404 13.4441 2.90527 15.2805 2.90527C17.1172 2.90527 18.606 4.39404 18.606 6.23071Z" fill="#0046AF"/>
<path d="M10.4111 12.7029C10.4111 14.5393 8.92212 16.0283 7.08569 16.0283C5.24902 16.0283 3.76025 14.5393 3.76025 12.7029C3.76025 10.8662 5.24902 9.37744 7.08569 9.37744C8.92212 9.37744 10.4111 10.8662 10.4111 12.7029Z" fill="#59D5FF"/>
<path d="M11.8696 22.6028C11.8696 24.4394 10.3809 25.9282 8.54419 25.9282C6.70752 25.9282 5.21875 24.4394 5.21875 22.6028C5.21875 20.7661 6.70752 19.2773 8.54419 19.2773C10.3809 19.2773 11.8696 20.7661 11.8696 22.6028Z" fill="#FF6E80"/>
<path d="M21.9312 25.5637C21.9312 27.4004 20.4424 28.8891 18.6057 28.8891C16.7693 28.8891 15.2803 27.4004 15.2803 25.5637C15.2803 23.727 16.7693 22.2383 18.6057 22.2383C20.4424 22.2383 21.9312 23.727 21.9312 25.5637Z" fill="white"/>
</g>
<defs>
<clipPath id="clip0_70_16535">
<rect width="32" height="32" fill="white"/>
</clipPath>
</defs>
</svg>
