<svg width="32" height="32" viewBox="0 0 32 32" fill="none" xmlns="http://www.w3.org/2000/svg">
<g clip-path="url(#clip0_70_16509)">
<path d="M27.1038 14.8648C26.8228 14.4765 26.7988 13.9623 27.0273 13.5408C27.7376 12.2304 28.1381 10.7275 28.1305 9.13046C28.1063 4.05433 23.9103 -0.0647906 18.8345 0.000771946C13.8231 0.0655219 9.78052 4.14821 9.78052 9.17502C9.78052 11.2096 10.4427 13.0894 11.5634 14.6108C12.048 15.2686 12.0142 16.1795 11.467 16.7863C10.6359 17.7076 8.84602 18.3054 5.05477 15.769C4.63902 15.4908 4.1509 15.34 3.65071 15.34C2.40402 15.34 1.34865 16.2542 1.16471 17.4873C0.493087 21.9885 0.407524 32 12.9354 32H17.3781C29.1282 32 32.258 21.9876 27.1038 14.8648Z" fill="#FBFB00"/>
<path d="M11.4669 16.7864C11.2213 17.0587 10.8918 17.3027 10.4516 17.4459C11.981 17.8135 12.8779 17.3634 13.3985 16.7864C13.9458 16.1796 13.9795 15.2688 13.4949 14.6109C12.3743 13.0895 11.712 11.2096 11.712 9.17505C11.712 4.43549 15.306 0.535927 19.9171 0.0513019C19.5615 0.0137394 19.2004 -0.00394809 18.8344 0.000739413C13.823 0.0654894 9.7804 4.14818 9.7804 9.17499C9.7804 11.2096 10.4426 13.0894 11.5633 14.6108C12.0479 15.2687 12.0141 16.1796 11.4669 16.7864Z" fill="#F9C81A"/>
<path d="M3.09622 17.487C3.22978 16.5922 3.82234 15.8657 4.61384 15.5342C4.30972 15.4078 3.98315 15.3398 3.65059 15.3398C2.4039 15.3398 1.34853 16.2541 1.16459 17.4872C0.493092 21.9883 0.40753 31.9998 12.9354 31.9998H14.867C2.33909 31.9998 2.42465 21.9883 3.09622 17.487Z" fill="#F9C81A"/>
<path d="M5.03239 21.5209C4.48452 22.0619 4.39008 22.9127 4.80752 23.5596C6.02652 25.4488 9.07946 28.9523 14.9558 28.9523C18.5343 28.9523 22.3177 26.7142 23.0223 23.0087C23.6041 19.9484 21.8194 16.2074 18.3141 16.3683C15.7456 16.4862 14.2432 18.7067 12.0726 19.7334C10.5477 20.4546 8.89483 20.899 7.21714 21.065C6.41864 21.144 5.67533 20.886 5.03239 21.5209Z" fill="#59D5FF"/>
<path d="M24.2746 6.92703C24.0557 6.92703 23.8575 6.77728 23.805 6.55509L23.5729 5.57197C23.5115 5.3124 23.6723 5.05228 23.9318 4.99103C24.1913 4.92984 24.4515 5.09047 24.5127 5.34997L24.7449 6.33309C24.8062 6.59265 24.6455 6.85278 24.386 6.91403C24.3487 6.92278 24.3114 6.92703 24.2746 6.92703Z" fill="#160052"/>
<path d="M26.7261 4.31209C26.7261 4.31209 26.926 7.17659 25.599 8.47403C24.2721 9.77147 26.4837 11.8062 29.1081 9.8894C29.4851 9.61409 29.867 9.43915 30.2446 9.3414C30.7307 9.21565 31.0723 8.78097 31.0723 8.27897C31.0723 7.79622 30.7579 7.36665 30.2949 7.22984C29.9871 7.13884 29.5962 7.08453 29.1377 7.14703C29.1377 7.14703 30.7247 5.7634 30.3326 4.16247C30.2059 3.64497 29.5916 3.42959 29.1554 3.73547C28.5913 4.13084 27.7159 4.54772 26.7261 4.31209Z" fill="#FF6E80"/>
</g>
<defs>
<clipPath id="clip0_70_16509">
<rect width="32" height="32" fill="white"/>
</clipPath>
</defs>
</svg>
