<svg width="32" height="32" viewBox="0 0 32 32" fill="none" xmlns="http://www.w3.org/2000/svg">
<g clip-path="url(#clip0_70_16598)">
<path d="M31.6999 6.86818C31.6999 7.41755 31.5769 7.9413 31.3606 8.40918L28.0299 9.57487C26.0031 9.57487 25.5212 8.99793 25.5212 6.97106C25.5212 5.36606 26.8181 3.40399 26.8181 3.40399C27.1954 3.27299 27.6081 3.19824 28.0299 3.19824C30.0567 3.19824 31.6999 4.8413 31.6999 6.86818Z" fill="#59D5FF"/>
<path d="M31.3606 8.40948C27.436 8.33342 26.253 5.33092 26.8181 3.4043C25.3869 3.90498 24.36 5.26642 24.36 6.86848C24.36 8.89536 26.0031 10.5384 28.0299 10.5384C29.5062 10.5384 30.7781 9.6663 31.3606 8.40948Z" fill="#59D5FF"/>
<path d="M21.5978 29.1646C19.5765 28.9119 17.5188 28.7838 15.4816 28.7838C13.4446 28.7838 11.387 28.9119 9.36571 29.1646C4.67771 29.7503 0.538208 26.1014 0.538208 21.372V14.9409C0.538208 10.2499 4.65277 6.55969 9.36558 7.14826C11.387 7.40094 13.4446 7.52907 15.4816 7.52907C17.5188 7.52907 19.5765 7.40094 21.5977 7.14826C26.309 6.56007 30.4251 10.2479 30.4251 14.9409V21.3719C30.4251 26.0629 26.3106 29.7532 21.5978 29.1646Z" fill="#FBFB00"/>
<path d="M21.2765 24.3667C17.4281 23.8857 13.5348 23.8857 9.68642 24.3667C7.64726 24.6217 5.84619 23.0317 5.84619 20.9766V15.3359C5.84619 13.2809 7.64732 11.6909 9.68642 11.9458C13.5348 12.4269 17.4281 12.4269 21.2765 11.9458C23.3156 11.6909 25.1167 13.2809 25.1167 15.3359V20.9766C25.1168 23.0316 23.3156 24.6217 21.2765 24.3667Z" fill="#F9C81A"/>
<path d="M13.7737 7.95238C13.6063 7.63469 13.5922 7.25644 13.7278 6.92394C14.7718 4.36407 13.0733 1.38613 10.242 1.08832C9.70528 1.03188 9.18109 1.07932 8.68846 1.2125C6.35834 2.60463 6.53809 5.81844 8.14128 6.97113C7.73946 11.045 9.57259 13.4024 13.0012 12.2056V12.2064C13.672 11.6066 14.116 10.7552 14.1713 9.79813C14.2099 9.12944 14.0615 8.4985 13.7737 7.95238Z" fill="#59D5FF"/>
<path d="M11.2872 27.0094C11.2047 24.6208 8.95899 22.9435 6.69824 23.4399C6.3743 23.511 6.03174 23.4159 5.80762 23.1715C5.2768 22.5924 4.54443 22.2022 3.7218 22.1094C1.87568 23.044 2.61149 25.9366 3.9563 26.5113C3.6273 28.2356 5.78318 31.252 8.98762 30.6281C10.381 30.0252 11.3422 28.6051 11.2872 27.0094Z" fill="#59D5FF"/>
<path d="M31.9939 23.7716C31.8863 21.8443 30.3106 20.2883 28.3822 20.203C27.7226 20.1738 27.0984 20.3138 26.5487 20.5825C23.9883 22.522 26.3481 27.9267 30.5897 26.9376C31.5016 26.2011 32.0654 25.0508 31.9939 23.7716Z" fill="#59D5FF"/>
<path d="M26.5487 20.5825C25.8105 20.9433 25.2068 21.5365 24.8335 22.2672C24.6768 22.5739 24.3358 22.7298 23.9949 22.6809C22.591 22.4796 21.2299 23.5618 21.2299 25.0839C21.2299 26.0448 21.7889 26.8748 22.5992 27.2673C22.8504 27.389 23.01 27.6412 23.033 27.9193C23.15 29.3331 24.335 30.4595 25.7967 30.4595C27.1276 30.4595 28.2389 29.5218 28.5074 28.2711C28.5714 27.9733 28.8067 27.744 29.1029 27.6725C29.6559 27.539 30.1611 27.2838 30.5898 26.9376C26.4242 27.0768 25.4071 22.2507 26.5487 20.5825Z" fill="#59D5FF"/>
<path d="M7.68213 30.9311C8.14426 30.9094 8.58401 30.8028 8.98769 30.6281C5.71369 30.4927 4.8712 27.9888 5.20013 26.2645C5.25313 25.9866 5.1042 25.7084 4.84451 25.5963C3.29813 24.929 3.0892 22.8178 3.72182 22.1095C3.49707 22.0841 3.26595 22.0796 3.02995 22.1011C1.31895 22.2571 -0.00367981 23.7196 7.69169e-06 25.4378C0.00413269 27.3686 1.6297 28.8633 3.50151 28.7709C3.8327 28.7545 4.13982 28.9292 4.32045 29.2073C5.02663 30.2945 6.27451 30.9971 7.68213 30.9311Z" fill="#59D5FF"/>
<path d="M13.0011 12.2055C9.73172 12.3403 8.92147 9.42972 9.61847 8.02159C9.77129 7.71278 9.68097 7.34096 9.40122 7.13984C7.79804 5.98715 7.21641 2.82053 8.68841 1.2124C8.02816 1.39096 7.42466 1.72415 6.92541 2.17346C6.72647 2.35246 6.43597 2.37953 6.20203 2.24953C5.6481 1.94171 5.00247 1.77903 4.31628 1.81321C2.52053 1.90278 1.06603 3.36159 0.981597 5.15759C0.901472 6.8619 2.03466 8.31471 3.59122 8.72796C4.17072 8.27903 4.81397 7.91034 5.50347 7.63678C5.80916 7.51546 6.16122 7.60978 6.3576 7.87359C6.48741 8.04803 6.63016 8.21215 6.78485 8.3644C7.0431 8.61853 7.17578 8.97178 7.1486 9.33309C7.00016 11.3099 8.54753 13.0719 10.5958 13.1073C11.512 13.1231 12.3602 12.7793 13.0013 12.2059L13.0011 12.2055Z" fill="#59D5FF"/>
</g>
<defs>
<clipPath id="clip0_70_16598">
<rect width="32" height="32" fill="white"/>
</clipPath>
</defs>
</svg>
