<svg width="32" height="33" viewBox="0 0 32 33" fill="none" xmlns="http://www.w3.org/2000/svg">
<g clip-path="url(#clip0_70_16571)">
<path d="M16 23.5675L23.775 22.3136L26.4792 12.5878C26.3371 10.9397 25.9384 9.50644 25.3272 8.28794C24.4014 6.44238 22.988 5.08963 21.2397 4.22963C19.7142 3.47919 17.9337 3.104 16 3.104C14.0662 3.104 12.2859 3.47919 10.7603 4.22963C9.01206 5.08963 7.59856 6.44238 6.67281 8.28794C6.06156 9.50644 5.66294 10.9397 5.52087 12.5878L8.225 22.3136L16 23.5675Z" fill="#F9C81A"/>
<path d="M16.5173 3.11419C16.346 3.10813 16.1738 3.104 16 3.104C14.0662 3.104 12.2859 3.47919 10.7603 4.22963C9.01206 5.08963 7.59856 6.44238 6.67281 8.28794C6.06156 9.50644 5.66294 10.9397 5.52087 12.5878L8.225 22.3136L16 23.5675L19.9356 22.9328C12.4446 19.1418 12.6604 8.51657 16.5173 3.11419Z" fill="#F9C81A"/>
<path d="M9.7766 29.8955H7.97579C6.91673 29.8955 6.05823 29.037 6.05823 27.9779V24.9458H11.6942V27.9779C11.6942 29.037 10.8357 29.8955 9.7766 29.8955Z" fill="#59D5FF"/>
<path d="M22.2234 29.8955H24.0242C25.0832 29.8955 25.9417 29.037 25.9417 27.9779V24.9458H20.3057V27.9779C20.3057 29.037 21.1643 29.8955 22.2234 29.8955Z" fill="#59D5FF"/>
<path d="M27.7755 11.7705C24.128 11.7705 22.9335 15.1065 22.6173 18.3092C22.4995 19.5029 21.5025 20.416 20.303 20.416H16.3103C12.4704 21.7664 12.7967 25.6164 16.7601 26.5072H23.5846C24.9074 26.5072 26.1721 25.9466 27.0468 24.9544C28.0643 23.8001 28.8986 22.2395 29.2352 20.5202C29.3041 20.1681 29.521 19.8586 29.8341 19.6835C31.1261 18.9611 32 17.5804 32 15.995C32 13.6619 30.1086 11.7705 27.7755 11.7705Z" fill="#FBFB00"/>
<path d="M16.3103 20.416H11.6971C10.4975 20.416 9.5005 19.5029 9.38269 18.3092C9.06656 15.1065 7.872 11.7705 4.2245 11.7705C1.89138 11.7705 0 13.6619 0 15.995C0 17.5805 0.873875 18.9611 2.16587 19.6834C2.47906 19.8586 2.69587 20.168 2.76481 20.5202C3.1015 22.2395 3.93575 23.8001 4.95325 24.9544C5.82794 25.9466 7.09262 26.5072 8.41537 26.5072H16.7601C14.7943 25.8058 13.9949 22.2599 16.3103 20.416Z" fill="#FBFB00"/>
<path d="M5.0438 18.0261C6.18973 17.5439 6.72776 16.224 6.24552 15.0781C5.76329 13.9321 4.44341 13.3941 3.29748 13.8764C2.15155 14.3586 1.61352 15.6785 2.09576 16.8244C2.57799 17.9703 3.89788 18.5084 5.0438 18.0261Z" fill="#FF6E80"/>
<path d="M29.9257 16.7896C30.385 15.6364 29.8224 14.3292 28.6693 13.8699C27.5161 13.4106 26.2089 13.9732 25.7496 15.1263C25.2904 16.2795 25.8529 17.5867 27.006 18.046C28.1592 18.5053 29.4664 17.9427 29.9257 16.7896Z" fill="#FF6E80"/>
</g>
<defs>
<clipPath id="clip0_70_16571">
<rect width="32" height="32" fill="white" transform="translate(0 0.5)"/>
</clipPath>
</defs>
</svg>
