<svg width="460" height="530" viewBox="0 0 460 530" fill="none" xmlns="http://www.w3.org/2000/svg">
<g opacity="0.1">
<path opacity="0.1" d="M475.533 154.048L475.533 93.1201L224.552 191.987L475.533 154.048Z" fill="#31B04D"/>
<path opacity="0.1" d="M475.533 290.367L475.533 229.494L224.552 191.987L475.533 290.367Z" fill="#31B04D"/>
<path opacity="0.1" d="M475.533 -8.34062L475.533 -123.546L224.552 191.987L475.533 -8.34062Z" fill="#31B04D"/>
<path opacity="0.1" d="M475.533 506.431L475.533 391.623L224.552 191.987L475.533 506.431Z" fill="#31B04D"/>
<path opacity="0.1" d="M290.947 631.204L397.573 631.204L224.552 191.987L290.947 631.204Z" fill="#31B04D"/>
<path opacity="0.1" d="M-26.4288 229.926L-26.4288 290.854L224.552 191.987L-26.4288 229.926Z" fill="#31B04D"/>
<path opacity="0.1" d="M-26.4288 392.315L-26.4288 507.526L224.552 191.987L-26.4288 392.315Z" fill="#31B04D"/>
<path opacity="0.1" d="M224.552 191.987L52.3893 631.204L158.916 631.204L224.552 191.987Z" fill="#31B04D"/>
<path opacity="0.1" d="M396.715 -247.229L290.189 -247.229L224.552 191.987L396.715 -247.229Z" fill="#31B04D"/>
<path opacity="0.1" d="M158.158 -247.229L51.5309 -247.229L224.552 191.987L158.158 -247.229Z" fill="#31B04D"/>
<path opacity="0.1" d="M-26.4288 -122.457L-26.4288 -7.6483L224.552 191.987L-26.4288 -122.457Z" fill="#31B04D"/>
<path opacity="0.1" d="M-26.4288 93.6074L-26.4288 154.48L224.552 191.987L-26.4288 93.6074Z" fill="#31B04D"/>
<g clip-path="url(#clip0_75_41237)">
<g style="mix-blend-mode:multiply">
<path d="M-7.99999 523.918L-7.99999 536.844L130.18 332.288L-7.99999 523.918Z" fill="#31B04D"/>
<path d="M-8 571.311L-8 579.743L51.5969 488.165L-8 571.311Z" fill="#31B04D"/>
<path d="M-7.99999 399.99L-7.99999 412.917L154.466 245.053L-7.99999 399.99Z" fill="#31B04D"/>
<path d="M-7.99998 447.383L-7.99998 455.815L65.9592 375.61L-7.99998 447.383Z" fill="#31B04D"/>
<path d="M-8.00002 285.596L-8.00002 298.523L148.438 201.259L-8.00002 285.596Z" fill="#31B04D"/>
<path d="M-7.99995 332.989L-7.99995 341.421L73.2356 279.376L-7.99995 332.989Z" fill="#31B04D"/>
<path d="M-7.99997 218.594L-7.99997 227.026L80.1738 201.259L-7.99997 218.594Z" fill="#31B04D"/>
<path d="M-7.99999 -181.424L-7.99998 -194.355L130.18 10.2057L-7.99999 -181.424Z" fill="#31B04D"/>
<path d="M-7.99999 -57.4964L-7.99998 -70.4277L154.466 97.4414L-7.99999 -57.4964Z" fill="#31B04D"/>
<path d="M-8.00002 56.8981L-8.00002 43.9668L148.438 141.231L-8.00002 56.8981Z" fill="#31B04D"/>
<path d="M-7.99995 9.50018L-7.99995 1.06836L73.2356 63.1178L-7.99995 9.50018Z" fill="#31B04D"/>
<path d="M-7.99997 123.895L-7.99997 115.463L80.1738 141.23L-7.99997 123.895Z" fill="#31B04D"/>
<path d="M230.102 586.125L244.507 586.125L235.107 434.566L230.102 586.125Z" fill="#31B04D"/>
<path d="M186.596 586.125L194.872 586.125L201.229 501.33L186.596 586.125Z" fill="#31B04D"/>
<path d="M142.823 586.125L148.533 586.125L163.043 503.18L142.823 586.125Z" fill="#31B04D"/>
<path d="M85.6788 586.125L91.3885 586.125L148.033 455.815L85.6788 586.125Z" fill="#31B04D"/>
<path d="M33.2963 586.125L39.006 586.125L73.2355 507.384L33.2963 586.125Z" fill="#31B04D"/>
<path d="M142.823 586.125L148.533 586.125L163.043 503.18L142.823 586.125Z" fill="#31B04D"/>
<path d="M85.6788 586.125L91.3885 586.125L148.033 455.815L85.6788 586.125Z" fill="#31B04D"/>
<path d="M33.2963 586.125L39.006 586.125L73.2355 507.384L33.2963 586.125Z" fill="#31B04D"/>
<path d="M284.303 586.125L276.446 586.125L269.808 502.192L284.303 586.125Z" fill="#31B04D"/>
<path d="M328.404 586.125L322.695 586.125L308.185 503.18L328.404 586.125Z" fill="#31B04D"/>
<path d="M385.549 586.125L379.839 586.125L323.199 455.815L385.549 586.125Z" fill="#31B04D"/>
<path d="M437.931 586.125L432.221 586.125L397.997 507.384L437.931 586.125Z" fill="#31B04D"/>
</g>
<g style="mix-blend-mode:multiply">
<path d="M468.203 -185.795L468.203 -198.722L330.024 5.8347L468.203 -185.795Z" fill="#31B04D"/>
<path d="M468.203 -61.8674L468.203 -74.7939L305.737 93.0704L468.203 -61.8674Z" fill="#31B04D"/>
<path d="M468.203 52.5262L468.203 39.5996L311.766 136.864L468.203 52.5262Z" fill="#31B04D"/>
<path d="M468.203 5.13398L468.203 -3.29785L386.968 58.7516L468.203 5.13398Z" fill="#31B04D"/>
<path d="M468.203 119.529L468.203 111.097L380.03 136.864L468.203 119.529Z" fill="#31B04D"/>
<path d="M468.203 519.547L468.203 532.478L330.023 327.917L468.203 519.547Z" fill="#31B04D"/>
<path d="M468.203 566.944L468.203 575.376L408.607 483.794L468.203 566.944Z" fill="#31B04D"/>
<path d="M468.203 395.619L468.203 408.551L305.737 240.682L468.203 395.619Z" fill="#31B04D"/>
<path d="M468.203 443.017L468.203 451.449L394.244 371.239L468.203 443.017Z" fill="#31B04D"/>
<path d="M468.203 281.225L468.203 294.156L311.766 196.893L468.203 281.225Z" fill="#31B04D"/>
<path d="M468.203 328.623L468.203 337.054L386.968 275.005L468.203 328.623Z" fill="#31B04D"/>
<path d="M468.203 214.228L468.203 222.66L380.03 196.893L468.203 214.228Z" fill="#31B04D"/>
</g>
</g>
</g>
<defs>
<clipPath id="clip0_75_41237">
<rect width="834.126" height="476.203" fill="white" transform="translate(468.203 -248) rotate(90)"/>
</clipPath>
</defs>
</svg>
